<?xml version="1.0" encoding="UTF-8"?>
<svg width="19px" height="25px" viewBox="0 0 19 25" version="1.1" xmlns="http://www.w3.org/2000/svg" xmlns:xlink="http://www.w3.org/1999/xlink">
    <!-- Generator: sketchtool 53.2 (72643) - https://sketchapp.com -->
    <title>EF6D599E-FD94-4EC9-92B8-63D7F5B133A1</title>
    <desc>Created with sketchtool.</desc>
    <g id="Hi-fis_lt" stroke="none" stroke-width="1" fill="none" fill-rule="evenodd" stroke-linecap="square">
        <g id="0_framework_v2" transform="translate(-1004.000000, -148.000000)" stroke="#333333">
            <g id="titles_sections" transform="translate(569.000000, 135.000000)">
                <g id="title+icon" transform="translate(406.000000, 0.000000)">
                    <g id="icon_reward_dk" transform="translate(30.074359, 13.000000)">
                        <path d="M10.7812165,8.56799348 C10.7812165,9.9902688 9.67050496,11.1377008 8.29375758,11.1377008 C6.9170102,11.1377008 5.80629539,9.9902688 5.80629539,8.56799348 C5.80629539,7.14571816 6.9170102,5.99828227 8.29375758,5.99828227 C9.67050496,5.99828227 10.7812165,7.14571816 10.7812165,8.56799348 Z M16.5941646,8.56799348 C14.1000486,5.99828227 14.1000486,5.99828227 14.1000486,5.99828227 C14.1000486,2.56971121 14.1000486,2.56971121 14.1000486,2.56971121 C10.7812157,2.56971121 10.7812157,2.56971121 10.7812157,2.56971121 C8.29375692,0 8.29375692,0 8.29375692,0 C5.80629492,2.56971121 5.80629492,2.56971121 5.80629492,2.56971121 C2.487462,2.56971121 2.487462,2.56971121 2.487462,2.56971121 C2.487462,5.99828227 2.487462,5.99828227 2.487462,5.99828227 C6.05509973e-14,8.56799348 6.05509973e-14,8.56799348 6.05509973e-14,8.56799348 C2.487462,11.1377008 2.487462,11.1377008 2.487462,11.1377008 C2.487462,14.5662731 2.487462,14.5662731 2.487462,14.5662731 C5.80629492,14.5662731 5.80629492,14.5662731 5.80629492,14.5662731 C8.29375692,17.1428553 8.29375692,17.1428553 8.29375692,17.1428553 C10.7812157,14.5662731 10.7812157,14.5662731 10.7812157,14.5662731 C14.1000486,14.5662731 14.1000486,14.5662731 14.1000486,14.5662731 C14.1000486,11.1377008 14.1000486,11.1377008 14.1000486,11.1377008 L16.5941646,8.56799348 Z M8.2937569,17.1428553 C9.95649885,24 9.95649885,24 9.95649885,24 C14.9314232,22.2822764 14.9314232,22.2822764 14.9314232,22.2822764 C13.062502,14.5662731 13.062502,14.5662731 13.062502,14.5662731 M3.52501303,14.5662731 C1.65609119,22.2822764 1.65609119,22.2822764 1.65609119,22.2822764 C6.63766629,24 6.63766629,24 6.63766629,24 C8.2937575,17.1428553 8.2937575,17.1428553 8.2937575,17.1428553"></path>
                    </g>
                </g>
            </g>
        </g>
    </g>
</svg>