<?xml version="1.0" encoding="UTF-8"?>
<svg width="24px" height="21px" viewBox="0 0 24 21" version="1.1" xmlns="http://www.w3.org/2000/svg" xmlns:xlink="http://www.w3.org/1999/xlink">
    <!-- Generator: sketchtool 53.2 (72643) - https://sketchapp.com -->
    <title>E54A1F1B-6F20-4446-A449-8B8D944856BE</title>
    <desc>Created with sketchtool.</desc>
    <g id="Hi-Fi_MVP" stroke="none" stroke-width="1" fill="none" fill-rule="evenodd">
        <g id="icons" transform="translate(-347.000000, -115.000000)" stroke="#333333" stroke-width="0.75">
            <g id="icon_weather_partly-cloudy" transform="translate(347.000000, 115.000000)">
                <path d="M5.52000018,11.2829653 C5.3122582,10.7733319 5.19354834,10.2162968 5.19354834,9.62962833 C5.19354834,7.17629673 7.18787067,5.18518561 9.64516089,5.18518561 C11.5860624,5.18518561 13.2242595,6.43555817 13.8296793,8.16592478 M19.2903218,20.0000006 C21.3380682,20.0000006 23.0000007,18.3407445 23.0000007,16.296297 C23.0000007,14.4592565 21.652643,12.9303724 19.8363893,12.6400004 C19.1834824,10.0444424 16.8152286,8.14814579 14.0967723,8.14814579 C11.7522595,8.14814579 9.66296929,9.53481432 8.71329042,11.6148144 C8.08412982,11.2888899 7.38374111,11.1111109 6.67741992,11.1111109 C4.22012915,11.1111109 2.22580682,13.1022214 2.22580682,15.5555585 C2.22580682,18.0088901 4.22012915,20.0000006 6.67741992,20.0000006 L19.2903218,20.0000006 Z M0,9.62962833 C2.96774207,9.62962833 2.96774207,9.62962833 2.96774207,9.62962833 L0,9.62962833 Z M4.92645198,4.91851876 C2.82529024,2.82074079 2.82529024,2.82074079 2.82529024,2.82074079 L4.92645198,4.91851876 Z M9.64516089,2.9629629 C9.64516089,-5.32907052e-15 9.64516089,-5.32907052e-15 9.64516089,-5.32907052e-15 L9.64516089,2.9629629 Z M16.4650315,2.82074079 C14.3638709,4.91851876 14.3638709,4.91851876 14.3638709,4.91851876 L16.4650315,2.82074079 Z"></path>
            </g>
        </g>
    </g>
</svg>