<?xml version="1.0" encoding="UTF-8"?>
<svg width="28px" height="21px" viewBox="0 0 28 21" version="1.1" xmlns="http://www.w3.org/2000/svg" xmlns:xlink="http://www.w3.org/1999/xlink">
    <!-- Generator: sketchtool 53.2 (72643) - https://sketchapp.com -->
    <title>45C8F0F1-790D-4E3B-9CC4-E7DAF621A449</title>
    <desc>Created with sketchtool.</desc>
    <g id="Hi-Fi_MVP" stroke="none" stroke-width="1" fill="none" fill-rule="evenodd">
        <g id="icons" transform="translate(-344.000000, -202.000000)" stroke="#333333" stroke-width="0.75">
            <g id="icon_weather_cloudy" transform="translate(345.000000, 203.000000)">
                <path d="M17.3448725,19.4224853 C21.6724367,19.4224853 21.6724367,19.4224853 21.6724367,19.4224853 C24.0612548,19.4224853 26.0000008,17.4413246 26.0000008,15.0002454 C26.0000008,12.8068129 24.4282262,10.9813127 22.3094513,10.6416801 C21.5478063,7.53549747 18.7850854,5.2713125 15.6138516,5.2713125 C12.878827,5.2713125 10.4415418,6.92699935 9.33369029,9.41760893 C8.59973571,9.02137095 7.78269226,8.80910498 6.95872328,8.80910498 C4.09214393,8.80910498 1.76564573,11.1935787 1.76564573,14.1157951 C1.76564573,17.0450866 4.09214393,19.4224853 6.95872328,19.4224853 C9.99147569,19.4224853 9.99147569,19.4224853 9.99147569,19.4224853 L17.3448725,19.4224853 Z M2.27802941,11.8162325 C0.920905406,11.0662179 3.55271368e-15,9.60156928 3.55271368e-15,7.91050477 C3.55271368e-15,5.45527751 1.94567277,3.46703773 4.34833548,3.46703773 C4.74300965,3.46703773 5.12383508,3.52364257 5.49081237,3.62270061 C6.17629581,1.51417561 8.12197326,5.32907052e-15 10.4207711,5.32907052e-15 C13.2942771,5.32907052e-15 15.6207713,2.37739698 15.6207713,5.30669017"></path>
            </g>
        </g>
    </g>
</svg>