<?xml version="1.0" encoding="UTF-8"?>
<svg width="45px" height="26px" viewBox="0 0 45 26" version="1.1" xmlns="http://www.w3.org/2000/svg" xmlns:xlink="http://www.w3.org/1999/xlink">
    <!-- Generator: sketchtool 53.2 (72643) - https://sketchapp.com -->
    <title>F4BBE12A-AE60-4E1B-B512-97A9BC37E039</title>
    <desc>Created with sketchtool.</desc>
    <g id="Hi-fis_lt" stroke="none" stroke-width="1" fill="none" fill-rule="evenodd" stroke-linecap="square">
        <g id="0_framework_v2" transform="translate(-599.000000, -147.000000)" stroke="#333333">
            <g id="titles_sections" transform="translate(569.000000, 135.000000)">
                <g id="title+icon">
                    <g id="icon_response_dk" transform="translate(31.000000, 13.000000)">
                        <path d="M35.302226,12.9475505 C35.302226,11.9535781 36.0927274,11.1584033 37.0808561,11.1584033 C38.0689768,11.1584033 38.8594782,11.9535781 38.8594782,12.9475505 C38.8594782,13.9415149 38.0689768,14.7366896 37.0808561,14.7366896 C36.0927274,14.7366896 35.302226,13.9415149 35.302226,12.9475505 Z M25.2233437,15.9294517 C25.2233437,16.9234162 26.0138451,17.7185909 27.0019738,17.7185909 C27.9900945,17.7185909 28.7805958,16.9234162 28.7805958,15.9294517 C28.7805958,14.9354873 27.9900945,14.1403126 27.0019738,14.1403126 C26.0138451,14.1403126 25.2233437,14.9354873 25.2233437,15.9294517 Z M10.8955176,21.6944645 C10.8955176,15.730662 10.8955176,15.730662 10.8955176,15.730662 C10.8955176,15.730662 10.4014612,14.7366896 9.90739688,14.7366896 C9.90739688,14.7366896 9.90739688,14.7366896 7.33826787,14.7366896 M22.8518396,23.7818002 C22.8518396,23.7818002 22.8518396,23.7818002 22.8518396,6.68555143 C22.8518396,6.0891664 22.456593,5.79097707 21.8637189,5.79097707 C21.8637189,5.79097707 21.8637189,5.79097707 18.6029038,5.79097707 M15.0456517,5.79097707 C15.0456517,6.7849423 15.8361531,7.58011703 16.8242738,7.58011703 C17.8124025,7.58011703 18.6029038,6.7849423 18.6029038,5.79097707 C18.6029038,4.79700865 17.8124025,4.00183472 16.8242738,4.00183472 C15.8361531,4.00183472 15.0456517,4.79700865 15.0456517,5.79097707 Z M27.0019738,6.38735493 C27.0019738,7.38132733 27.7924751,8.17650206 28.7805958,8.17650206 C29.7687245,8.17650206 30.5592259,7.38132733 30.5592259,6.38735493 C30.5592259,5.3933897 29.7687245,4.59821577 28.7805958,4.59821577 C27.7924751,4.59821577 27.0019738,5.3933897 27.0019738,6.38735493 Z M14.4527777,16.5258367 C14.4527777,17.5198012 15.2432711,18.3149759 16.2313998,18.3149759 C17.2195284,18.3149759 18.0100298,17.5198012 18.0100298,16.5258367 C18.0100298,15.5318644 17.2195284,14.7366896 16.2313998,14.7366896 C15.2432711,14.7366896 14.4527777,15.5318644 14.4527777,16.5258367 Z M3.78101576,14.7366896 C3.78101576,15.730662 4.57151632,16.5258367 5.55964182,16.5258367 C6.54776811,16.5258367 7.33826787,15.730662 7.33826787,14.7366896 C7.33826787,13.7427252 6.54776811,12.9475505 5.55964182,12.9475505 C4.57151632,12.9475505 3.78101576,13.7427252 3.78101576,14.7366896 Z M22.8518396,9.96564123 C22.8518396,9.96564123 22.8518396,9.96564123 27.6936575,9.96564123 C28.2865315,9.96564123 28.7805958,9.56805386 28.7805958,9.07107562 C28.7805958,9.07107562 28.7805958,9.07107562 28.7805958,8.17650206 M10.8955176,2.80907262 C10.8955176,2.80907262 10.8955176,3.0078663 10.8955176,10.3632286 C10.8955176,10.8602148 11.2907723,11.1584033 11.7848366,11.1584033 C11.7848366,11.1584033 11.7848366,11.1584033 13.761086,11.1584033 C13.761086,11.1584033 13.761086,11.1584033 15.2432711,11.1584033 C15.7373354,11.1584033 16.2313998,11.7547884 16.2313998,12.2517666 C16.2313998,12.2517666 16.2313998,12.2517666 16.2313998,14.7366896 M35.302226,12.9475505 C35.302226,12.9475505 35.302226,12.9475505 33.2271669,12.9475505 C32.7331026,12.9475505 32.3378479,13.3451378 32.3378479,13.8421161 C32.3378479,13.8421161 32.3378479,13.8421161 32.3378479,18.3149759 M32.3378479,22.0920519 C32.3378479,22.0920519 32.3378479,22.0920519 32.3378479,16.8240253 C32.3378479,16.3270391 31.9426012,15.9294517 31.3497272,15.9294517 C31.3497272,15.9294517 31.3497272,15.9294517 28.7805958,15.9294517 M35.005789,18.4143747 C35.8951001,19.0107518 36.8832287,19.3089403 37.9701671,19.3089403 C40.8357355,19.3089403 43.1084219,17.022815 43.1084219,14.1403126 C43.1084219,11.2578022 40.8357355,8.97167679 37.9701671,8.97167679 C37.9701671,8.87227796 37.9701671,8.87227796 37.9701671,8.87227796 C37.9701671,8.87227796 37.0808561,1.71570856 30.2627889,2.01389868 C30.2627889,2.01389868 26.8043464,-1.66378342 22.0613463,0.920533823 C22.0613463,0.920533823 17.7135928,-2.06137063 14.057523,3.20666078 C14.057523,3.20666078 7.43708074,0.522946457 6.35014237,8.17650206 C6.35014237,8.17650206 0.322575235,9.46865503 0.026137506,14.3391023 C-0.369112773,19.1101506 3.78101576,22.4896393 8.22758449,19.3089403 C8.22758449,19.3089403 11.4883996,24.0799887 15.8361531,21.4956748 C15.8361531,21.4956748 21.5672819,27.2606877 26.3102821,21.2968772 C26.3102821,21.2968772 32.1402286,25.9685267 35.005789,18.4143747 Z"></path>
                    </g>
                </g>
            </g>
        </g>
    </g>
</svg>