<?xml version="1.0" encoding="UTF-8"?>
<svg width="26px" height="26px" viewBox="0 0 26 26" version="1.1" xmlns="http://www.w3.org/2000/svg" xmlns:xlink="http://www.w3.org/1999/xlink">
    <!-- Generator: sketchtool 53.2 (72643) - https://sketchapp.com -->
    <title>4520953A-0486-4D66-B41A-4C28A5500109</title>
    <desc>Created with sketchtool.</desc>
    <g id="Hi-fis_lt" stroke="none" stroke-width="1" fill="none" fill-rule="evenodd" stroke-linejoin="round">
        <g id="0_framework_v2" transform="translate(-1004.000000, -513.000000)" stroke="#333333">
            <g id="titles_sections" transform="translate(569.000000, 135.000000)">
                <g id="title+icon" transform="translate(406.000000, 366.000000)">
                    <g id="icon_context_dk" transform="translate(30.000000, 13.000000)">
                        <path d="M0,12.0360358 C0,9.22522726 0.939759327,6.63063372 2.60240934,4.54054065 C4.77108466,1.80180179 8.16867336,0 12,0 C18.6506001,0 24,5.40540538 24,12.0360358 C24,18.5945979 18.6506001,24 12,24 C5.34939734,24 0,18.5945979 0,12.0360358 Z M6.43373467,22.6306316 C7.37349335,21.5495498 7.37349335,21.5495498 7.37349335,21.5495498 C7.08433994,19.6036014 7.08433994,19.6036014 7.08433994,19.6036014 C5.20481933,18.3783763 5.20481933,18.3783763 5.20481933,18.3783763 C2.746988,18.3783763 2.746988,18.3783763 2.746988,18.3783763 C1.51807201,15.6396394 1.51807201,15.6396394 1.51807201,15.6396394 C2.746988,12.1081075 2.746988,12.1081075 2.746988,12.1081075 C4.19277133,12.0360358 4.19277133,12.0360358 4.19277133,12.0360358 C5.78313201,13.9099126 5.78313201,13.9099126 5.78313201,13.9099126 C7.37349335,13.1171176 7.37349335,13.1171176 7.37349335,13.1171176 C6.72289329,11.2432408 6.72289329,11.2432408 6.72289329,11.2432408 C7.30120663,8.93694054 7.30120663,8.93694054 7.30120663,8.93694054 C10.4819267,5.76576573 10.4819267,5.76576573 10.4819267,5.76576573 C8.60240673,3.38738724 8.60240673,3.38738724 8.60240673,3.38738724 C7.30120663,4.900901 7.30120663,4.900901 7.30120663,4.900901 C2.31325333,4.900901 2.31325333,4.900901 2.31325333,4.900901 M18.14458,1.72972946 C13.5180733,4.03603627 13.5180733,4.03603627 13.5180733,4.03603627 C14.53012,6.63063372 14.53012,6.63063372 14.53012,6.63063372 C16.9879533,6.63063372 16.9879533,6.63063372 16.9879533,6.63063372 C15.8313266,8.28828889 15.8313266,8.28828889 15.8313266,8.28828889 C13.5180733,9.36937062 13.5180733,9.36937062 13.5180733,9.36937062 C11.6385534,12.1081075 11.6385534,12.1081075 11.6385534,12.1081075 C12.2168667,14.7027011 12.2168667,14.7027011 12.2168667,14.7027011 C14.8915667,16.2162129 14.8915667,16.2162129 14.8915667,16.2162129 C15.7590334,15.279281 15.7590334,15.279281 15.7590334,15.279281 C16.5542134,17.5855878 16.5542134,17.5855878 16.5542134,17.5855878 C15.6867467,20.828833 15.6867467,20.828833 15.6867467,20.828833 C17.7108466,19.8918947 17.7108466,19.8918947 17.7108466,19.8918947 C18.7228933,18.450448 18.7228933,18.450448 18.7228933,18.450448 C18.7228933,12.1081075 18.7228933,12.1081075 18.7228933,12.1081075 C17.2771067,9.87387239 17.2771067,9.87387239 17.2771067,9.87387239 C18.7228933,8.93694054 18.7228933,8.93694054 18.7228933,8.93694054 C20.53012,9.87387239 20.53012,9.87387239 20.53012,9.87387239 C22.12048,12.2522509 22.12048,12.2522509 22.12048,12.2522509 C22.12048,13.4054043 22.12048,13.4054043 22.12048,13.4054043 C24,13.0450459 24,13.0450459 24,13.0450459"></path>
                    </g>
                </g>
            </g>
        </g>
    </g>
</svg>