<?xml version="1.0" encoding="UTF-8"?>
<svg width="24px" height="24px" viewBox="0 0 24 24" version="1.1" xmlns="http://www.w3.org/2000/svg" xmlns:xlink="http://www.w3.org/1999/xlink">
    <!-- Generator: sketchtool 53.2 (72643) - https://sketchapp.com -->
    <title>B1253EED-96E5-4E6A-82BC-70B45FFDB83B</title>
    <desc>Created with sketchtool.</desc>
    <g id="Hi-fis_lt" stroke="none" stroke-width="1" fill="none" fill-rule="evenodd" stroke-linecap="square">
        <g id="code-view_landing" transform="translate(-191.000000, -167.000000)" stroke="#333333">
            <g id="chat_core" transform="translate(191.000000, 167.000000)">
                <g id="chat" transform="translate(172.500000, 389.000000) rotate(-180.000000) translate(-172.500000, -389.000000) ">
                    <g id="weather" transform="translate(291.000000, 754.000000)">
                        <g id="icon_sun_dk" transform="translate(42.000000, 12.000000) rotate(180.000000) translate(-42.000000, -12.000000) translate(30.000000, -0.000000)">
                            <g id="Path">
                                <path d="M7.06666389,12.133333 C7.06666389,9.39999813 9.26666621,7.20000023 12.0000004,7.20000023 C14.7333346,7.20000023 16.9333369,9.39999813 16.9333369,12.133333 C16.9333369,14.8666679 14.7333346,17.0666658 12.0000004,17.0666658 C9.26666621,17.0666658 7.06666389,14.8666679 7.06666389,12.133333 Z"></path>
                                <path d="M6.86666614,6.86666544 C3.46666715,3.53333381 3.46666715,3.53333381 3.46666715,3.53333381 L6.86666614,6.86666544 Z"></path>
                                <path d="M17.0666665,6.86666544 C20.533337,3.53333381 20.533337,3.53333381 20.533337,3.53333381 L17.0666665,6.86666544 Z"></path>
                                <path d="M12.0000004,4.80000015 C12.0000004,2.84217094e-14 12.0000004,2.84217094e-14 12.0000004,2.84217094e-14 L12.0000004,4.80000015 Z"></path>
                                <path d="M12.0000004,19.2000006 C12.0000004,24.0000008 12.0000004,24.0000008 12.0000004,24.0000008 L12.0000004,19.2000006 Z"></path>
                                <path d="M17.0666665,17.0666658 C20.533337,20.4666702 20.533337,20.4666702 20.533337,20.4666702 L17.0666665,17.0666658 Z"></path>
                                <path d="M6.86666614,17.0666658 C3.46666715,20.4666702 3.46666715,20.4666702 3.46666715,20.4666702 L6.86666614,17.0666658 Z"></path>
                                <path d="M4.80000015,12.0000004 C-2.84217094e-14,12.0000004 -2.84217094e-14,12.0000004 -2.84217094e-14,12.0000004 L4.80000015,12.0000004 Z"></path>
                                <path d="M19.2000006,12.0000004 C24.0000008,12.0000004 24.0000008,12.0000004 24.0000008,12.0000004 L19.2000006,12.0000004 Z"></path>
                            </g>
                        </g>
                    </g>
                </g>
            </g>
        </g>
    </g>
</svg>