<?xml version="1.0" encoding="UTF-8"?>
<svg width="21px" height="22px" viewBox="0 0 21 22" version="1.1" xmlns="http://www.w3.org/2000/svg" xmlns:xlink="http://www.w3.org/1999/xlink">
    <!-- Generator: sketchtool 53.2 (72643) - https://sketchapp.com -->
    <title>C64C18D4-AF5F-4AFB-84A0-00C8406DF54D</title>
    <desc>Created with sketchtool.</desc>
    <g id="Hi-fis_lt" stroke="none" stroke-width="1" fill="none" fill-rule="evenodd" stroke-linecap="square">
        <g id="code-view_landing" transform="translate(-295.000000, -166.000000)" stroke="#4E4E4E">
            <g id="chat_core" transform="translate(191.000000, 167.000000)">
                <g id="chat" transform="translate(172.500000, 389.000000) rotate(-180.000000) translate(-172.500000, -389.000000) ">
                    <g id="time" transform="translate(159.000000, 758.000000)">
                        <g id="icon_time_dk" transform="translate(71.500000, 10.000000) rotate(180.000000) translate(-71.500000, -10.000000) translate(61.500000, -0.000000)">
                            <path d="M10,0 C4.47826066,0 0,4.47826066 0,10 C0,15.5217377 4.47826066,20 10,20 C15.5217377,20 20,15.5217377 20,10 C20,4.47826066 15.5217377,0 10,0 Z M9.22981265,3.84472061 C9.22981265,10.7701873 9.22981265,10.7701873 9.22981265,10.7701873 C14.6149063,10.7701873 14.6149063,10.7701873 14.6149063,10.7701873"></path>
                        </g>
                    </g>
                </g>
            </g>
        </g>
    </g>
</svg>