<?xml version="1.0" encoding="UTF-8"?>
<svg width="22px" height="26px" viewBox="0 0 22 26" version="1.1" xmlns="http://www.w3.org/2000/svg" xmlns:xlink="http://www.w3.org/1999/xlink">
    <!-- Generator: sketchtool 53.2 (72643) - https://sketchapp.com -->
    <title>C8848218-05AA-4B04-A9C6-A8983BDE31FE</title>
    <desc>Created with sketchtool.</desc>
    <g id="Hi-fis_lt" stroke="none" stroke-width="1" fill="none" fill-rule="evenodd" stroke-linecap="square">
        <g id="0_framework_v2" transform="translate(-1396.000000, -148.000000)" stroke="#333333">
            <g id="titles_sections" transform="translate(569.000000, 135.000000)">
                <g id="title+icon" transform="translate(799.000000, 0.000000)">
                    <g id="icon_experiment_dk" transform="translate(28.926209, 14.000000)">
                        <path d="M15.0429159,13.598297 C15.0429159,13.598297 13.3348085,12.7991485 11.6203442,12.7991485 C9.9122367,12.7991485 9.9122367,14.3974456 8.1977789,14.3974456 C6.48966494,14.3974456 4.78155878,13.598297 4.78155878,13.598297 M5.1435002,0 C7.52469403,0 7.52469403,0 7.52469403,0 C7.52469403,8.34949118 7.52469403,8.34949118 7.52469403,8.34949118 C7.52469403,8.64357752 7.44849634,8.93127125 7.29610095,9.1870019 C0.2287165,21.576984 0.2287165,21.576984 0.2287165,21.576984 C-0.406268392,22.6446484 0.355713739,24 1.59393438,24 C18.2368885,24 18.2368885,24 18.2368885,24 C19.4687588,24 20.2307422,22.651041 19.5957593,21.5833766 C12.5283729,9.1870019 12.5283729,9.1870019 12.5283729,9.1870019 C12.3759775,8.93127125 12.2934294,8.64357752 12.2934294,8.34949118 C12.2934294,0 12.2934294,0 12.2934294,0 C14.6809723,0 14.6809723,0 14.6809723,0 M5.14349997,20.8034124 C6.73096507,20.8034124 6.73096507,20.8034124 6.73096507,20.8034124 M8.32477285,18.5721879 C9.91223664,18.5721879 9.91223664,18.5721879 9.91223664,18.5721879 M5.14349997,16.6286636 C6.73096507,16.6286636 6.73096507,16.6286636 6.73096507,16.6286636 M11.4997009,16.9738974 C13.0871647,16.9738974 13.0871647,16.9738974 13.0871647,16.9738974 M14.6809719,20.8034124 C16.2684357,20.8034124 16.2684357,20.8034124 16.2684357,20.8034124 M9.91223688,21.576984 C11.4997007,21.576984 11.4997007,21.576984 11.4997007,21.576984"></path>
                    </g>
                </g>
            </g>
        </g>
    </g>
</svg>