<?xml version="1.0" encoding="UTF-8"?>
<svg width="14px" height="21px" viewBox="0 0 14 21" version="1.1" xmlns="http://www.w3.org/2000/svg" xmlns:xlink="http://www.w3.org/1999/xlink">
    <!-- Generator: sketchtool 53.2 (72643) - https://sketchapp.com -->
    <title>06C8DCB9-6852-4F96-B094-DA9148986CF9</title>
    <desc>Created with sketchtool.</desc>
    <g id="Hi-fis_lt" stroke="none" stroke-width="1" fill="none" fill-rule="evenodd" stroke-linecap="square">
        <g id="code-view_landing" transform="translate(-426.000000, -166.000000)" stroke="#4E4E4E">
            <g id="chat_core" transform="translate(191.000000, 167.000000)">
                <g id="chat" transform="translate(172.500000, 389.000000) rotate(-180.000000) translate(-172.500000, -389.000000) ">
                    <g id="location" transform="translate(0.000000, 758.000000)">
                        <g id="icon_location_dk" transform="translate(103.000000, 10.000000) rotate(180.000000) translate(-103.000000, -10.000000) translate(97.000000, -0.000000)">
                            <g id="Path">
                                <path d="M11.4010712,8.74651671 C6.00000019,20.0000006 6.00000019,20.0000006 6.00000019,20.0000006 C0.598930728,8.74651671 0.598930728,8.74651671 0.598930728,8.74651671 C0.219251346,7.97771408 -9.41469125e-14,7.13649222 -9.41469125e-14,6.250698 C-9.41469125e-14,2.79665771 2.68449195,-1.77635684e-14 6.00000019,-1.77635684e-14 C9.31550686,-1.77635684e-14 12.0000004,2.79665771 12.0000004,6.250698 C12.0000004,7.13649222 11.780751,7.97771408 11.4010712,8.74651671 Z"></path>
                                <path d="M6.00000019,2.80779917 C4.16577546,2.80779917 2.67914444,4.35654643 2.67914444,6.26740721 C2.67914444,8.17827341 4.16577546,9.72702176 6.00000019,9.72702176 C7.83422597,9.72702176 9.32085594,8.17827341 9.32085594,6.26740721 C9.32085594,4.35654643 7.83422597,2.80779917 6.00000019,2.80779917 Z"></path>
                            </g>
                        </g>
                    </g>
                </g>
            </g>
        </g>
    </g>
</svg>