<?xml version="1.0" encoding="UTF-8"?>
<svg width="26px" height="21px" viewBox="0 0 26 21" version="1.1" xmlns="http://www.w3.org/2000/svg" xmlns:xlink="http://www.w3.org/1999/xlink">
    <!-- Generator: sketchtool 53.2 (72643) - https://sketchapp.com -->
    <title>A75B24E5-4093-41E1-AE6A-5659AFBF1C90</title>
    <desc>Created with sketchtool.</desc>
    <g id="Hi-Fi_MVP" stroke="none" stroke-width="1" fill="none" fill-rule="evenodd">
        <g id="icons" transform="translate(-345.000000, -158.000000)" stroke="#333333" stroke-width="0.75">
            <g id="icon_weather_stormy" transform="translate(346.000000, 159.000000)">
                <path d="M16.010651,18.0830041 C20.0053254,18.0830041 20.0053254,18.0830041 20.0053254,18.0830041 C22.2103882,18.0830041 23.9999998,16.2384751 23.9999998,13.9657462 C23.9999998,11.9235847 22.549131,10.223981 20.5933389,9.90777141 C19.890282,7.01580813 17.3400782,4.90777377 14.4127855,4.90777377 C11.8881475,4.90777377 9.638346,6.44927538 8.61571384,8.76811887 C7.93821733,8.39920763 7.18402341,8.20158068 6.42343669,8.20158068 C3.77736356,8.20158068 1.62982685,10.421608 1.62982685,13.1422924 C1.62982685,15.8695638 3.77736356,18.0830041 6.42343669,18.0830041 C9.22290033,18.0830041 9.22290033,18.0830041 9.22290033,18.0830041 L16.010651,18.0830041 Z M2.10279642,11.0013199 C0.850066546,10.3030304 0,8.93939205 0,7.36495269 C0,5.07905146 1.79600567,3.22793167 4.01384822,3.22793167 C4.37816284,3.22793167 4.72969402,3.28063273 5.06844229,3.37285918 C5.70119625,1.4097497 7.49720624,1.22507368e-15 9.61917351,1.22507368e-15 C12.2716407,1.22507368e-15 14.4191738,2.21343856 14.4191738,4.94071152 M11.2462596,19.5390931 C12.8952621,16.139886 12.8952621,16.139886 12.8952621,16.139886 C10.9714286,16.139886 10.9714286,16.139886 10.9714286,16.139886 C13.4449296,11.0344828 13.4449296,11.0344828 13.4449296,11.0344828 C15.9248235,11.0344828 15.9248235,11.0344828 15.9248235,11.0344828 C14.2694336,14.440277 14.2694336,14.440277 14.2694336,14.440277 C16.8835438,14.440277 16.8835438,14.440277 16.8835438,14.440277 L11.2462596,19.5390931 Z"></path>
            </g>
        </g>
    </g>
</svg>