<?xml version="1.0" encoding="UTF-8" standalone="no"?>
<svg
   xmlns:dc="http://purl.org/dc/elements/1.1/"
   xmlns:cc="http://creativecommons.org/ns#"
   xmlns:rdf="http://www.w3.org/1999/02/22-rdf-syntax-ns#"
   xmlns:svg="http://www.w3.org/2000/svg"
   xmlns="http://www.w3.org/2000/svg"
   xmlns:sodipodi="http://sodipodi.sourceforge.net/DTD/sodipodi-0.dtd"
   xmlns:inkscape="http://www.inkscape.org/namespaces/inkscape"
   id="flag-icon-css-um"
   viewBox="0 0 640 480"
   version="1.1"
   sodipodi:docname="us.svg"
   inkscape:version="0.92.4 (5da689c313, 2019-01-14)">
  <metadata
     id="metadata52">
    <rdf:RDF>
      <cc:Work
         rdf:about="">
        <dc:format>image/svg+xml</dc:format>
        <dc:type
           rdf:resource="http://purl.org/dc/dcmitype/StillImage" />
      </cc:Work>
    </rdf:RDF>
  </metadata>
  <sodipodi:namedview
     pagecolor="#ffffff"
     bordercolor="#666666"
     borderopacity="1"
     objecttolerance="10"
     gridtolerance="10"
     guidetolerance="10"
     inkscape:pageopacity="0"
     inkscape:pageshadow="2"
     inkscape:window-width="2560"
     inkscape:window-height="1346"
     id="namedview50"
     showgrid="false"
     inkscape:zoom="2.2770833"
     inkscape:cx="320"
     inkscape:cy="240"
     inkscape:window-x="-11"
     inkscape:window-y="1609"
     inkscape:window-maximized="1"
     inkscape:current-layer="flag-icon-css-um" />
  <defs
     id="defs35">
    <clipPath
       id="a">
      <path
         fill-opacity=".7"
         d="M0 0h682.7v512H0z"
         id="path32" />
    </clipPath>
    <filter
       inkscape:label="Age"
       inkscape:menu="Image Effects"
       inkscape:menu-tooltip="Imitate aged photograph"
       style="color-interpolation-filters:sRGB;"
       id="filter66">
      <feColorMatrix
         type="saturate"
         in="SourceGraphic"
         values="0"
         id="feColorMatrix54" />
      <feColorMatrix
         values="3 0 0 0 -0.3 0 3 0 0 -0.3 0 0 3 0 -0.3 0 0 0 1 0"
         result="result0"
         id="feColorMatrix56" />
      <feTurbulence
         baseFrequency="0.111"
         numOctaves="2"
         type="fractalNoise"
         id="feTurbulence58" />
      <feColorMatrix
         values="0 0 0 0 0 0 0 0 0 0 0 0 0 0 0 0 0 0 255 -200"
         id="feColorMatrix60" />
      <feGaussianBlur
         stdDeviation="1"
         id="feGaussianBlur62" />
      <feComposite
         in2="result0"
         operator="atop"
         id="feComposite64" />
    </filter>
  </defs>
  <g
     fill-rule="evenodd"
     clip-path="url(#a)"
     transform="scale(.9375)"
     id="g47"
     style="filter:url(#filter66)">
    <g
       stroke-width="1pt"
       id="g41">
      <path
         fill="#bd3d44"
         d="M0 0h972.8v39.4H0zm0 78.8h972.8v39.4H0zm0 78.7h972.8V197H0zm0 78.8h972.8v39.4H0zm0 78.8h972.8v39.4H0zm0 78.7h972.8v39.4H0zm0 78.8h972.8V512H0z"
         id="path37" />
      <path
         fill="#fff"
         d="M0 39.4h972.8v39.4H0zm0 78.8h972.8v39.3H0zm0 78.7h972.8v39.4H0zm0 78.8h972.8v39.4H0zm0 78.8h972.8v39.4H0zm0 78.7h972.8v39.4H0z"
         id="path39" />
    </g>
    <path
       fill="#192f5d"
       d="M0 0h389.1v275.7H0z"
       id="path43" />
    <path
       fill="#fff"
       d="M32.4 11.8L36 22.7h11.4l-9.2 6.7 3.5 11-9.3-6.8-9.2 6.7 3.5-10.9-9.3-6.7H29zm64.9 0l3.5 10.9h11.5l-9.3 6.7 3.5 11-9.2-6.8-9.3 6.7 3.5-10.9-9.2-6.7h11.4zm64.8 0l3.6 10.9H177l-9.2 6.7 3.5 11-9.3-6.8-9.2 6.7 3.5-10.9-9.3-6.7h11.5zm64.9 0l3.5 10.9H242l-9.3 6.7 3.6 11-9.3-6.8-9.3 6.7 3.6-10.9-9.3-6.7h11.4zm64.8 0l3.6 10.9h11.4l-9.2 6.7 3.5 11-9.3-6.8-9.2 6.7 3.5-10.9-9.2-6.7h11.4zm64.9 0l3.5 10.9h11.5l-9.3 6.7 3.6 11-9.3-6.8-9.3 6.7 3.6-10.9-9.3-6.7h11.5zM64.9 39.4l3.5 10.9h11.5L70.6 57 74 67.9l-9-6.7-9.3 6.7L59 57l-9-6.7h11.4zm64.8 0l3.6 10.9h11.4l-9.3 6.7 3.6 10.9-9.3-6.7-9.3 6.7L124 57l-9.3-6.7h11.5zm64.9 0l3.5 10.9h11.5l-9.3 6.7 3.5 10.9-9.2-6.7-9.3 6.7 3.5-10.9-9.2-6.7H191zm64.8 0l3.6 10.9h11.4l-9.3 6.7 3.6 10.9-9.3-6.7-9.2 6.7 3.5-10.9-9.3-6.7H256zm64.9 0l3.5 10.9h11.5L330 57l3.5 10.9-9.2-6.7-9.3 6.7 3.5-10.9-9.2-6.7h11.4zM32.4 66.9L36 78h11.4l-9.2 6.7 3.5 10.9-9.3-6.8-9.2 6.8 3.5-11-9.3-6.7H29zm64.9 0l3.5 11h11.5l-9.3 6.7 3.5 10.9-9.2-6.8-9.3 6.8 3.5-11-9.2-6.7h11.4zm64.8 0l3.6 11H177l-9.2 6.7 3.5 10.9-9.3-6.8-9.2 6.8 3.5-11-9.3-6.7h11.5zm64.9 0l3.5 11H242l-9.3 6.7 3.6 10.9-9.3-6.8-9.3 6.8 3.6-11-9.3-6.7h11.4zm64.8 0l3.6 11h11.4l-9.2 6.7 3.5 10.9-9.3-6.8-9.2 6.8 3.5-11-9.2-6.7h11.4zm64.9 0l3.5 11h11.5l-9.3 6.7 3.6 10.9-9.3-6.8-9.3 6.8 3.6-11-9.3-6.7h11.5zM64.9 94.5l3.5 10.9h11.5l-9.3 6.7 3.5 11-9.2-6.8-9.3 6.7 3.5-10.9-9.2-6.7h11.4zm64.8 0l3.6 10.9h11.4l-9.3 6.7 3.6 11-9.3-6.8-9.3 6.7 3.6-10.9-9.3-6.7h11.5zm64.9 0l3.5 10.9h11.5l-9.3 6.7 3.5 11-9.2-6.8-9.3 6.7 3.5-10.9-9.2-6.7H191zm64.8 0l3.6 10.9h11.4l-9.2 6.7 3.5 11-9.3-6.8-9.2 6.7 3.5-10.9-9.3-6.7H256zm64.9 0l3.5 10.9h11.5l-9.3 6.7 3.5 11-9.2-6.8-9.3 6.7 3.5-10.9-9.2-6.7h11.4zM32.4 122.1L36 133h11.4l-9.2 6.7 3.5 11-9.3-6.8-9.2 6.7 3.5-10.9-9.3-6.7H29zm64.9 0l3.5 10.9h11.5l-9.3 6.7 3.5 10.9-9.2-6.7-9.3 6.7 3.5-10.9-9.2-6.7h11.4zm64.8 0l3.6 10.9H177l-9.2 6.7 3.5 11-9.3-6.8-9.2 6.7 3.5-10.9-9.3-6.7h11.5zm64.9 0l3.5 10.9H242l-9.3 6.7 3.6 11-9.3-6.8-9.3 6.7 3.6-10.9-9.3-6.7h11.4zm64.8 0l3.6 10.9h11.4l-9.2 6.7 3.5 11-9.3-6.8-9.2 6.7 3.5-10.9-9.2-6.7h11.4zm64.9 0l3.5 10.9h11.5l-9.3 6.7 3.6 11-9.3-6.8-9.3 6.7 3.6-10.9-9.3-6.7h11.5zM64.9 149.7l3.5 10.9h11.5l-9.3 6.7 3.5 10.9-9.2-6.8-9.3 6.8 3.5-11-9.2-6.7h11.4zm64.8 0l3.6 10.9h11.4l-9.3 6.7 3.6 10.9-9.3-6.8-9.3 6.8 3.6-11-9.3-6.7h11.5zm64.9 0l3.5 10.9h11.5l-9.3 6.7 3.5 10.9-9.2-6.8-9.3 6.8 3.5-11-9.2-6.7H191zm64.8 0l3.6 10.9h11.4l-9.2 6.7 3.5 10.9-9.3-6.8-9.2 6.8 3.5-11-9.3-6.7H256zm64.9 0l3.5 10.9h11.5l-9.3 6.7 3.5 10.9-9.2-6.8-9.3 6.8 3.5-11-9.2-6.7h11.4zM32.4 177.2l3.6 11h11.4l-9.2 6.7 3.5 10.8-9.3-6.7-9.2 6.7 3.5-10.9-9.3-6.7H29zm64.9 0l3.5 11h11.5l-9.3 6.7 3.6 10.8-9.3-6.7-9.3 6.7 3.6-10.9-9.3-6.7h11.4zm64.8 0l3.6 11H177l-9.2 6.7 3.5 10.8-9.3-6.7-9.2 6.7 3.5-10.9-9.3-6.7h11.5zm64.9 0l3.5 11H242l-9.3 6.7 3.6 10.8-9.3-6.7-9.3 6.7 3.6-10.9-9.3-6.7h11.4zm64.8 0l3.6 11h11.4l-9.2 6.7 3.5 10.8-9.3-6.7-9.2 6.7 3.5-10.9-9.2-6.7h11.4zm64.9 0l3.5 11h11.5l-9.3 6.7 3.6 10.8-9.3-6.7-9.3 6.7 3.6-10.9-9.3-6.7h11.5zM64.9 204.8l3.5 10.9h11.5l-9.3 6.7 3.5 11-9.2-6.8-9.3 6.7 3.5-10.9-9.2-6.7h11.4zm64.8 0l3.6 10.9h11.4l-9.3 6.7 3.6 11-9.3-6.8-9.3 6.7 3.6-10.9-9.3-6.7h11.5zm64.9 0l3.5 10.9h11.5l-9.3 6.7 3.5 11-9.2-6.8-9.3 6.7 3.5-10.9-9.2-6.7H191zm64.8 0l3.6 10.9h11.4l-9.2 6.7 3.5 11-9.3-6.8-9.2 6.7 3.5-10.9-9.3-6.7H256zm64.9 0l3.5 10.9h11.5l-9.3 6.7 3.5 11-9.2-6.8-9.3 6.7 3.5-10.9-9.2-6.7h11.4zM32.4 232.4l3.6 10.9h11.4l-9.2 6.7 3.5 10.9-9.3-6.7-9.2 6.7 3.5-11-9.3-6.7H29zm64.9 0l3.5 10.9h11.5L103 250l3.6 10.9-9.3-6.7-9.3 6.7 3.6-11-9.3-6.7h11.4zm64.8 0l3.6 10.9H177l-9 6.7 3.5 10.9-9.3-6.7-9.2 6.7 3.5-11-9.3-6.7h11.5zm64.9 0l3.5 10.9H242l-9.3 6.7 3.6 10.9-9.3-6.7-9.3 6.7 3.6-11-9.3-6.7h11.4zm64.8 0l3.6 10.9h11.4l-9.2 6.7 3.5 10.9-9.3-6.7-9.2 6.7 3.5-11-9.2-6.7h11.4zm64.9 0l3.5 10.9h11.5l-9.3 6.7 3.6 10.9-9.3-6.7-9.3 6.7 3.6-11-9.3-6.7h11.5z"
       id="path45" />
  </g>
</svg>
